# Blender 4.2.3 LTS
# www.blender.org
o Cone.002
v 11.677765 -6.163152 -5.578511
v 14.559509 -8.085534 -5.578511
v 14.783467 -4.628679 -5.578511
v 13.673580 -6.292455 -8.578505
v 13.673580 -6.292455 -3.999988
v 11.146799 6.196837 2.815957
v 10.859485 3.988770 5.469606
v 10.706609 2.813881 2.214423
v 9.912657 4.462195 3.499995
v 13.879218 3.946066 3.499995
v 13.394395 -6.323808 6.504366
v 11.330585 3.260760 2.939199
v 13.451735 -5.709457 8.122783
v 11.387925 3.875111 4.557617
v 14.892581 -5.756329 7.162699
v 12.828772 3.828241 3.597533
v 14.253188 -5.313570 -5.361017
v 14.253189 -5.313570 6.999988
v 12.653982 -5.978807 -5.361017
v 12.653983 -5.978807 6.999988
v 14.029698 -7.031141 -5.361017
v 14.029699 -7.031141 6.999988
v 13.614103 -5.841413 1.553026
v 13.351407 -1.862993 5.464283
v 13.116281 -6.311437 2.083355
v 12.853584 -2.333017 5.994611
v 13.975066 -6.423182 2.083355
v 13.712370 -2.444762 5.994611
vn -0.5265 -0.7892 -0.3162
vn 0.9467 -0.0613 -0.3162
vn -0.4202 0.8505 -0.3162
vn -0.3742 0.7574 0.5352
vn 0.8430 -0.0546 0.5352
vn -0.4688 -0.7027 0.5352
vn -0.6313 0.6284 0.4545
vn -0.7869 -0.5677 0.2418
vn -0.6854 0.2130 -0.6964
vn 0.3348 0.1226 -0.9343
vn 0.1986 -0.9248 0.3245
vn 0.4074 0.6799 0.6098
vn 0.9797 0.1735 -0.1006
vn -0.5185 -0.3939 -0.7589
vn 0.1978 -0.9187 0.3417
vn -0.4612 0.2204 0.8595
vn -0.1978 0.9187 -0.3417
vn 0.3841 -0.9233 -0.0000
vn 0.6076 0.7943 -0.0000
vn -0.0000 -0.0000 -1.0000
vn -0.9916 0.1290 -0.0000
vn -0.0000 -0.0000 1.0000
vn 0.8182 -0.3746 0.4360
vn 0.0912 0.7012 -0.7071
vn -0.0912 -0.7012 -0.7071
vn -0.9088 -0.3215 0.2659
vn 0.0912 0.7012 0.7071
s 0
f 1//1 4//1 2//1
f 2//2 4//2 3//2
f 3//3 4//3 1//3
f 3//4 1//4 5//4
f 2//5 3//5 5//5
f 2//6 5//6 1//6
f 6//7 9//7 7//7
f 7//8 9//8 8//8
f 8//9 9//9 6//9
f 8//10 6//10 10//10
f 7//11 8//11 10//11
f 7//12 10//12 6//12
f 11//13 12//13 14//13 13//13
f 13//14 14//14 16//14 15//14
f 14//15 12//15 16//15
f 15//16 16//16 12//16 11//16
f 11//17 13//17 15//17
f 17//18 18//18 20//18 19//18
f 19//19 20//19 22//19 21//19
f 20//20 18//20 22//20
f 21//21 22//21 18//21 17//21
f 17//22 19//22 21//22
f 23//23 24//23 26//23 25//23
f 25//24 26//24 28//24 27//24
f 26//25 24//25 28//25
f 27//26 28//26 24//26 23//26
f 23//27 25//27 27//27
o Cone.001
v -12.121385 -6.308771 -5.578527
v -15.227087 -7.843245 -5.578527
v -15.003129 -4.386389 -5.578527
v -14.117200 -6.179468 -8.578527
v -14.117200 -6.179468 -4.000000
v -10.000021 5.879382 2.815959
v -10.000020 3.652701 5.469615
v -10.000020 2.467908 2.214424
v -9.000019 3.999997 3.499999
v -13.000020 3.999997 3.499999
v -13.844393 -6.246583 6.504377
v -10.561119 2.991565 2.939202
v -13.821983 -5.629969 8.122797
v -10.538708 3.608178 4.557623
v -15.256832 -5.490533 7.162711
v -11.973557 3.747615 3.597537
v -14.565656 -5.133978 -5.361033
v -14.565656 -5.133978 7.000000
v -13.065656 -6.000003 -5.361033
v -13.065655 -6.000003 7.000000
v -14.565655 -6.866029 -5.361033
v -14.565655 -6.866029 7.000000
v -14.000021 -5.739870 1.553026
v -13.226176 -1.828605 5.464291
v -13.567008 -6.270201 2.083356
v -12.793163 -2.358935 5.994620
v -14.433033 -6.270201 2.083356
v -13.659188 -2.358935 5.994620
vn 0.4202 -0.8505 -0.3162
vn -0.9467 0.0613 -0.3162
vn 0.5265 0.7892 -0.3162
vn 0.4688 0.7027 0.5352
vn -0.8430 0.0546 0.5352
vn 0.3742 -0.7574 0.5352
vn 0.7071 0.5417 0.4545
vn 0.7071 -0.6645 0.2418
vn 0.7071 0.1228 -0.6964
vn -0.3162 0.1647 -0.9343
vn -0.3162 -0.8915 0.3245
vn -0.3162 0.7267 0.6098
vn -0.9491 0.2985 -0.1006
vn 0.4633 -0.4576 -0.7589
vn -0.3147 -0.8855 0.3417
vn 0.4858 0.1591 0.8595
vn 0.3147 0.8855 -0.3417
vn -0.5000 -0.8660 -0.0000
vn -0.5000 0.8660 -0.0000
vn -0.0000 -0.0000 -1.0000
vn 1.0000 -0.0000 -0.0000
vn -0.0000 -0.0000 1.0000
vn -0.8597 -0.2659 0.4360
vn -0.0000 0.7071 -0.7071
vn -0.0000 -0.7071 -0.7071
vn 0.8597 -0.4360 0.2659
vn -0.0000 0.7071 0.7071
s 0
f 29//28 30//28 32//28
f 30//29 31//29 32//29
f 31//30 29//30 32//30
f 31//31 33//31 29//31
f 30//32 33//32 31//32
f 30//33 29//33 33//33
f 34//34 35//34 37//34
f 35//35 36//35 37//35
f 36//36 34//36 37//36
f 36//37 38//37 34//37
f 35//38 38//38 36//38
f 35//39 34//39 38//39
f 39//40 41//40 42//40 40//40
f 41//41 43//41 44//41 42//41
f 42//42 44//42 40//42
f 43//43 39//43 40//43 44//43
f 39//44 43//44 41//44
f 45//45 47//45 48//45 46//45
f 47//46 49//46 50//46 48//46
f 48//47 50//47 46//47
f 49//48 45//48 46//48 50//48
f 45//49 49//49 47//49
f 51//50 53//50 54//50 52//50
f 53//51 55//51 56//51 54//51
f 54//52 56//52 52//52
f 55//53 51//53 52//53 56//53
f 51//54 55//54 53//54
