# Blender 5.2.0 LTS
# www.blender.org
mtllib icosphere_wire_thick.mtl
o Icosphere.001
v 0.000000 0.990000 -0.000000
v 0.000000 1.010000 -0.000000
v -0.520468 0.442748 -0.716371
v -0.530982 0.451692 -0.730843
v -0.842143 0.442748 0.273624
v -0.859155 0.451692 0.279152
v 0.000000 0.442744 0.885482
v 0.000000 0.451688 0.903370
v 0.842143 0.442748 0.273624
v 0.859155 0.451692 0.279152
v 0.520468 0.442748 -0.716371
v 0.530982 0.451692 -0.730843
v -0.842143 -0.442748 -0.273624
v -0.859155 -0.451692 -0.279152
v -0.520468 -0.442748 0.716371
v -0.530982 -0.451692 0.730843
v 0.520468 -0.442748 0.716371
v 0.530982 -0.451692 0.730843
v 0.842143 -0.442748 -0.273624
v 0.859155 -0.451692 -0.279152
v 0.000000 -0.442744 -0.885482
v 0.000000 -0.451688 -0.903370
v 0.000000 -0.990000 0.000000
v 0.000000 -1.010000 0.000000
v -0.494995 0.842147 0.160831
v -0.504995 0.859161 0.164081
v -0.305921 0.842147 -0.421070
v -0.312101 0.859160 -0.429576
v -0.800922 0.520481 -0.260240
v -0.817102 0.530995 -0.265498
v 0.000000 0.520479 -0.842142
v -0.000000 0.530993 -0.859155
v 0.305921 0.842147 -0.421070
v 0.312101 0.859160 -0.429576
v -0.000000 0.842146 0.520473
v 0.000000 0.859159 0.530987
v -0.494997 0.520479 0.681307
v -0.504997 0.530993 0.695071
v 0.494995 0.842147 0.160831
v 0.504995 0.859161 0.164081
v 0.494997 0.520479 0.681307
v 0.504997 0.530993 0.695071
v 0.800922 0.520481 -0.260240
v 0.817102 0.530995 -0.265498
v -0.305923 -0.000000 -0.941547
v -0.312103 -0.000000 -0.960569
v 0.305923 -0.000000 -0.941547
v 0.312103 -0.000000 -0.960569
v -0.990000 -0.000000 0.000000
v -1.010000 0.000000 -0.000000
v -0.800927 -0.000000 -0.581908
v -0.817107 -0.000000 -0.593664
v -0.305923 0.000000 0.941547
v -0.312103 0.000000 0.960569
v -0.800927 0.000000 0.581908
v -0.817107 0.000000 0.593664
v 0.800927 0.000000 0.581908
v 0.817107 0.000000 0.593664
v 0.305923 0.000000 0.941547
v 0.312103 0.000000 0.960569
v 0.800927 -0.000000 -0.581908
v 0.817107 -0.000000 -0.593664
v 0.990000 -0.000000 -0.000000
v 1.010000 0.000000 0.000000
v -0.494997 -0.520479 -0.681307
v -0.504997 -0.530993 -0.695071
v -0.800922 -0.520481 0.260240
v -0.817102 -0.530995 0.265498
v -0.000000 -0.520479 0.842142
v 0.000000 -0.530993 0.859155
v 0.800922 -0.520481 0.260240
v 0.817102 -0.530995 0.265498
v 0.494997 -0.520479 -0.681307
v 0.504997 -0.530993 -0.695071
v -0.494995 -0.842147 -0.160831
v -0.504995 -0.859161 -0.164081
v 0.000000 -0.842146 -0.520473
v -0.000000 -0.859159 -0.530987
v -0.305921 -0.842147 0.421070
v -0.312101 -0.859160 0.429576
v 0.305921 -0.842147 0.421070
v 0.312101 -0.859160 0.429576
v 0.494995 -0.842147 -0.160831
v 0.504995 -0.859161 -0.164081
v -0.015871 0.994140 -0.005157
v -0.305903 0.853967 -0.404357
v -0.485157 0.853967 0.147321
v -0.511160 0.456674 -0.720248
v -0.307757 0.835330 -0.440284
v -0.017724 0.530368 -0.839486
v -0.009809 0.994140 0.013500
v -0.479095 0.853967 0.165978
v -0.009809 0.853965 0.506941
v 0.009809 0.994140 0.013500
v 0.009809 0.853965 0.506941
v 0.479095 0.853967 0.165978
v 0.015871 0.994140 -0.005157
v 0.485157 0.853967 0.147321
v 0.305903 0.853967 -0.404357
v -0.511160 0.439987 -0.730561
v -0.017724 0.513681 -0.849800
v -0.307758 0.020234 -0.944043
v -0.852762 0.439987 0.260387
v -0.813682 0.513683 -0.245750
v -0.992940 0.020234 0.000975
v -0.015870 0.439983 0.891491
v -0.485159 0.513681 0.697921
v -0.305905 0.020234 0.944645
v 0.842954 0.439987 0.290575
v 0.513838 0.513681 0.677084
v 0.803878 0.020234 0.582848
v 0.536840 0.439987 -0.711904
v 0.802728 0.513683 -0.279464
v 0.802733 0.020234 -0.584425
v -0.527031 0.429674 -0.725405
v -0.323629 0.009921 -0.938886
v -0.792924 0.009921 -0.597925
v -0.852762 0.429674 0.277075
v -0.992940 0.009921 0.017662
v -0.813687 0.009921 0.569348
v 0.000000 0.429670 0.896648
v -0.290034 0.009921 0.949802
v 0.290034 0.009921 0.949802
v 0.852762 0.429674 0.277075
v 0.813687 0.009921 0.569348
v 0.992940 0.009921 0.017662
v 0.527031 0.429674 -0.725405
v 0.792924 0.009921 -0.597925
v 0.323629 0.009921 -0.938886
v -0.836891 -0.456674 -0.282231
v -0.507776 -0.530368 -0.668740
v -0.507774 -0.835330 -0.175297
v -0.527031 -0.456674 0.708717
v -0.792919 -0.530370 0.276277
v -0.323627 -0.835330 0.428753
v 0.511160 -0.456674 0.720248
v 0.017724 -0.530368 0.839486
v 0.307757 -0.835330 0.440284
v 0.842953 -0.456675 -0.263574
v 0.803874 -0.530370 0.242563
v 0.513836 -0.835330 -0.156640
v 0.009809 -0.456671 -0.883147
v 0.479097 -0.530368 -0.689577
v 0.009809 -0.835328 -0.537096
v 0.009809 -0.853965 -0.506941
v 0.479095 -0.853967 -0.165978
v 0.009809 -0.994140 -0.013500
v 0.018683 -0.844581 -0.521978
v 0.490655 -0.537877 -0.675331
v 0.490653 -0.844583 -0.179066
v 0.507776 -0.530368 -0.668740
v 0.836891 -0.456674 -0.282231
v 0.507774 -0.835330 -0.175297
v 0.485157 -0.853967 -0.147321
v 0.305903 -0.853967 0.404357
v 0.015871 -0.994140 0.005157
v 0.502200 -0.844583 -0.143528
v 0.793897 -0.537879 0.257958
v 0.321921 -0.844583 0.411306
v 0.792919 -0.530370 0.276277
v 0.527031 -0.456674 0.708717
v 0.323627 -0.835330 0.428753
v 0.290032 -0.853967 0.415888
v -0.290032 -0.853967 0.415888
v 0.000000 -0.994140 0.016688
v 0.291691 -0.844583 0.433270
v 0.000000 -0.537877 0.834755
v -0.291691 -0.844583 0.433270
v -0.017724 -0.530368 0.839486
v -0.511160 -0.456674 0.720248
v -0.307757 -0.835330 0.440284
v -0.305903 -0.853967 0.404357
v -0.485157 -0.853967 -0.147321
v -0.015871 -0.994140 0.005157
v -0.321921 -0.844583 0.411306
v -0.793897 -0.537879 0.257958
v -0.502200 -0.844583 -0.143528
v -0.803874 -0.530370 0.242563
v -0.842953 -0.456675 -0.263574
v -0.513836 -0.835330 -0.156640
v -0.479095 -0.853967 -0.165978
v -0.009809 -0.853965 -0.506941
v -0.009809 -0.994140 -0.013500
v -0.490653 -0.844583 -0.179066
v -0.490655 -0.537877 -0.675331
v -0.018683 -0.844581 -0.521978
v -0.479097 -0.530368 -0.689577
v -0.009809 -0.456671 -0.883147
v -0.009809 -0.835328 -0.537096
v 0.305905 -0.020234 -0.944645
v 0.485159 -0.513681 -0.697921
v 0.015870 -0.439983 -0.891491
v 0.321923 -0.009823 -0.939360
v 0.793902 -0.009823 -0.596449
v 0.502202 -0.506091 -0.691224
v 0.803878 -0.020234 -0.582848
v 0.842954 -0.439987 -0.290575
v 0.513838 -0.513681 -0.677084
v 0.992940 -0.020234 -0.000975
v 0.813682 -0.513683 0.245750
v 0.852762 -0.439987 -0.260387
v 0.992864 -0.009822 0.015893
v 0.812585 -0.009822 0.570734
v 0.812580 -0.506093 0.264028
v 0.802733 -0.020234 0.584425
v 0.536840 -0.439987 0.711904
v 0.802728 -0.513683 0.279464
v 0.307758 -0.020234 0.944043
v 0.017724 -0.513681 0.849800
v 0.511160 -0.439987 0.730561
v 0.291693 -0.009822 0.949182
v -0.291693 -0.009822 0.949182
v 0.000000 -0.506091 0.854400
v -0.307758 -0.020234 0.944043
v -0.511160 -0.439987 0.730561
v -0.017724 -0.513681 0.849800
v -0.802733 -0.020234 0.584425
v -0.802728 -0.513683 0.279464
v -0.536840 -0.439987 0.711904
v -0.812585 -0.009822 0.570734
v -0.992864 -0.009822 0.015893
v -0.812580 -0.506093 0.264028
v -0.992940 -0.020234 -0.000975
v -0.852762 -0.439987 -0.260387
v -0.813682 -0.513683 0.245750
v -0.803878 -0.020234 -0.582848
v -0.513838 -0.513681 -0.677084
v -0.842954 -0.439987 -0.290575
v -0.793902 -0.009823 -0.596449
v -0.321923 -0.009823 -0.939360
v -0.502202 -0.506091 -0.691224
v -0.305905 -0.020234 -0.944645
v -0.015870 -0.439983 -0.891491
v -0.485159 -0.513681 -0.697921
v 0.813687 -0.009921 -0.569348
v 0.992940 -0.009921 -0.017662
v 0.852762 -0.429674 -0.277075
v 0.812585 0.009822 -0.570734
v 0.812580 0.506093 -0.264028
v 0.992864 0.009822 -0.015893
v 0.813682 0.513683 -0.245750
v 0.852762 0.439987 0.260387
v 0.992940 0.020234 0.000975
v 0.792924 -0.009921 0.597925
v 0.323629 -0.009921 0.938886
v 0.527031 -0.429674 0.725405
v 0.793902 0.009823 0.596449
v 0.502202 0.506091 0.691224
v 0.321923 0.009823 0.939360
v 0.485159 0.513681 0.697921
v 0.015870 0.439983 0.891491
v 0.305905 0.020234 0.944645
v -0.323629 -0.009921 0.938886
v -0.792924 -0.009921 0.597925
v -0.527031 -0.429674 0.725405
v -0.321923 0.009823 0.939360
v -0.502202 0.506091 0.691224
v -0.793902 0.009823 0.596449
v -0.513838 0.513681 0.677084
v -0.842954 0.439987 0.290575
v -0.803878 0.020234 0.582848
v -0.992940 -0.009921 -0.017662
v -0.813687 -0.009921 -0.569348
v -0.852762 -0.429674 -0.277075
v -0.992864 0.009822 -0.015893
v -0.812580 0.506093 -0.264028
v -0.812585 0.009822 -0.570734
v -0.802728 0.513683 -0.279464
v -0.536840 0.439987 -0.711904
v -0.802733 0.020234 -0.584425
v -0.290034 -0.009921 -0.949802
v 0.290034 -0.009921 -0.949802
v 0.000000 -0.429670 -0.896648
v -0.291693 0.009822 -0.949182
v 0.000000 0.506091 -0.854400
v 0.291693 0.009822 -0.949182
v 0.017724 0.513681 -0.849800
v 0.511160 0.439987 -0.730561
v 0.307758 0.020234 -0.944043
v 0.323627 0.835330 -0.428753
v 0.792919 0.530370 -0.276277
v 0.527031 0.456674 -0.708717
v 0.321921 0.844583 -0.411306
v 0.502200 0.844583 0.143528
v 0.793897 0.537879 -0.257958
v 0.513836 0.835330 0.156640
v 0.842953 0.456675 0.263574
v 0.803874 0.530370 -0.242563
v 0.507774 0.835330 0.175297
v 0.507776 0.530368 0.668740
v 0.836891 0.456674 0.282231
v 0.490653 0.844583 0.179066
v 0.018683 0.844581 0.521978
v 0.490655 0.537877 0.675331
v 0.009809 0.835328 0.537096
v 0.009809 0.456671 0.883147
v 0.479097 0.530368 0.689577
v -0.009809 0.835328 0.537096
v -0.479097 0.530368 0.689577
v -0.009809 0.456671 0.883147
v -0.018683 0.844581 0.521978
v -0.490653 0.844583 0.179066
v -0.490655 0.537877 0.675331
v -0.507774 0.835330 0.175297
v -0.836891 0.456674 0.282231
v -0.507776 0.530368 0.668740
v 0.017724 0.530368 -0.839486
v 0.307757 0.835330 -0.440284
v 0.511160 0.456674 -0.720248
v 0.000000 0.537877 -0.834755
v -0.291691 0.844583 -0.433270
v 0.291691 0.844583 -0.433270
v -0.290032 0.853967 -0.415888
v 0.000000 0.994140 -0.016688
v 0.290032 0.853967 -0.415888
v -0.513836 0.835330 0.156640
v -0.803874 0.530370 -0.242563
v -0.842953 0.456675 0.263574
v -0.502200 0.844583 0.143528
v -0.321921 0.844583 -0.411306
v -0.793897 0.537879 -0.257958
v -0.323627 0.835330 -0.428753
v -0.527031 0.456674 -0.708717
v -0.792919 0.530370 -0.276277
vn -0.9420 -0.1374 -0.3061
vn 0.0774 0.3330 0.9398
vn 0.3090 -0.8507 0.4253
vn -0.0000 -1.0000 -0.0000
vn -0.0000 1.0000 -0.0000
vn -0.3090 0.8507 -0.4253
vn 0.6150 0.3330 -0.7148
vn 0.5000 -0.8507 -0.1625
vn -0.5000 0.8507 0.1625
vn 0.7539 0.6553 0.0472
vn 0.0093 -0.5718 -0.8203
vn 0.5257 -0.4472 0.7236
vn -0.5257 0.4472 -0.7236
vn -0.8605 0.3428 0.3769
vn -0.0000 -0.5257 0.8506
vn -0.0000 0.5257 -0.8506
vn -0.5822 -0.1374 0.8013
vn 0.9177 0.3330 0.2168
vn -0.4897 0.3330 -0.8058
vn -0.0000 -0.8507 -0.5257
vn -0.0000 0.8507 0.5257
vn 0.5822 -0.1374 0.8013
vn 0.4897 0.3330 -0.8058
vn -0.9177 0.3330 0.2168
vn -0.5000 -0.8507 -0.1625
vn 0.5000 0.8507 0.1625
vn 0.9420 -0.1374 -0.3061
vn -0.6150 0.3330 -0.7148
vn -0.0774 0.3330 0.9398
vn -0.3090 -0.8507 0.4253
vn 0.3090 0.8507 -0.4253
vn 0.7539 -0.3352 -0.5650
vn -0.8605 -0.4904 -0.1381
vn 0.0093 0.9895 0.1446
vn 0.3090 -0.0000 0.9511
vn -0.3090 -0.0000 -0.9511
vn -0.3044 -0.3352 -0.8916
vn -0.3972 -0.4904 0.7757
vn 0.8090 -0.5257 0.2629
vn 0.8506 -0.4472 -0.2764
vn -0.8506 0.4472 0.2764
vn -0.8090 0.5257 -0.2629
vn 0.1404 0.9895 0.0358
vn 1.0000 -0.0000 -0.0000
vn -1.0000 -0.0000 -0.0000
vn -0.9420 -0.3352 0.0140
vn 0.6150 -0.4904 0.6175
vn 0.5000 -0.5257 -0.6882
vn -0.0000 -0.4472 -0.8944
vn -0.0000 0.4472 0.8944
vn -0.5000 0.5257 0.6882
vn 0.0774 0.9895 -0.1224
vn 0.3090 -0.0000 -0.9511
vn -0.3090 -0.0000 0.9511
vn -0.2778 -0.3352 0.9002
vn 0.7773 -0.4904 -0.3941
vn -0.5000 -0.5257 -0.6882
vn -0.8506 -0.4472 -0.2764
vn 0.8506 0.4472 0.2764
vn 0.5000 0.5257 0.6882
vn -0.0925 0.9894 -0.1115
vn -0.8090 -0.0000 -0.5878
vn 0.8090 -0.0000 0.5878
vn 0.7703 -0.3352 0.5424
vn -0.1346 -0.4904 -0.8610
vn -0.8090 -0.5257 0.2629
vn -0.5257 -0.4472 0.7236
vn 0.5257 0.4472 -0.7236
vn 0.8090 0.5257 -0.2629
vn -0.1346 0.9895 0.0535
vn -0.8090 -0.0000 0.5878
vn 0.8090 -0.0000 -0.5878
vn -0.1881 -0.9474 -0.2589
vn -0.7831 0.4745 0.4020
vn 0.6243 0.4745 -0.6205
vn -0.3044 -0.9474 0.0989
vn 0.1404 0.4745 0.8690
vn -0.3972 0.4745 -0.7855
vn -0.0000 -0.9474 0.3201
vn 0.8698 0.4745 0.1350
vn -0.8698 0.4745 0.1350
vn 0.3044 -0.9474 0.0989
vn 0.3972 0.4745 -0.7855
vn -0.1404 0.4745 0.8690
vn 0.1881 -0.9474 -0.2589
vn -0.6243 0.4745 -0.6205
vn 0.7831 0.4745 0.4020
vn 0.6377 -0.6553 -0.4050
vn -0.4746 -0.3428 0.8107
vn -0.4746 0.5718 -0.6692
vn -0.1881 -0.6553 -0.7316
vn 0.6244 -0.3428 0.7019
vn -0.7831 0.5718 0.2446
vn -0.7539 -0.6553 -0.0472
vn 0.8605 -0.3428 -0.3769
vn -0.0093 0.5718 0.8203
vn -0.2778 -0.6553 0.7024
vn -0.0925 -0.3428 -0.9348
vn 0.7773 0.5718 0.2624
vn 0.5822 -0.6553 0.4813
vn -0.9177 -0.3428 -0.2009
vn 0.4897 0.5718 -0.6582
vn 0.4897 -0.3330 0.8058
vn -0.9177 -0.3330 -0.2168
vn 0.5822 0.1374 -0.8013
vn 0.9884 0.1292 0.0799
vn -0.3814 -0.7609 0.5250
vn -0.3814 0.1292 -0.9153
vn 0.4746 -0.3428 0.8107
vn -0.6377 -0.6553 -0.4050
vn 0.4746 0.5718 -0.6692
vn -0.6150 -0.3330 0.7148
vn -0.0774 -0.3330 -0.9398
vn 0.9420 0.1374 0.3061
vn 0.2295 0.1292 0.9647
vn -0.6171 -0.7609 -0.2005
vn 0.7527 0.1292 -0.6456
vn -0.6244 -0.3428 0.7019
vn 0.1881 -0.6553 -0.7316
vn 0.7831 0.5718 0.2446
vn -0.8698 -0.3330 -0.3640
vn 0.8698 -0.3330 -0.3640
vn -0.0000 0.1374 0.9905
vn -0.8466 0.1293 0.5163
vn -0.0000 -0.7609 -0.6489
vn 0.8466 0.1293 0.5163
vn -0.8605 -0.3428 -0.3769
vn 0.7539 -0.6553 -0.0472
vn 0.0093 0.5718 0.8203
vn 0.0774 -0.3330 -0.9398
vn 0.6150 -0.3330 0.7148
vn -0.9420 0.1374 0.3061
vn -0.7527 0.1292 -0.6456
vn 0.6171 -0.7609 -0.2005
vn -0.2295 0.1292 0.9647
vn 0.0925 -0.3428 -0.9348
vn 0.2778 -0.6553 0.7024
vn -0.7773 0.5718 0.2624
vn 0.9177 -0.3330 -0.2168
vn -0.4897 -0.3330 0.8058
vn -0.5822 0.1374 -0.8013
vn 0.3814 0.1292 -0.9153
vn 0.3814 -0.7609 0.5250
vn -0.9884 0.1292 0.0799
vn 0.9177 -0.3428 -0.2009
vn -0.5822 -0.6553 0.4813
vn -0.4897 0.5718 -0.6582
vn -0.0774 -0.9895 0.1224
vn -0.6150 0.4904 -0.6175
vn 0.9420 0.3352 -0.0140
vn 0.7527 -0.5196 0.4043
vn -0.6171 -0.5196 -0.5909
vn 0.2295 0.9207 -0.3158
vn -0.0925 -0.9894 0.1115
vn -0.2778 0.3352 -0.9002
vn 0.7773 0.4904 0.3941
vn -0.1404 -0.9895 -0.0358
vn 0.3972 0.4904 -0.7757
vn 0.3044 0.3352 0.8916
vn -0.1519 -0.5196 0.8408
vn 0.3713 -0.5196 -0.7695
vn 0.3713 0.9207 0.1206
vn -0.1346 -0.9895 -0.0535
vn 0.7703 0.3352 -0.5424
vn -0.1346 0.4904 0.8610
vn -0.0093 -0.9895 -0.1446
vn 0.8605 0.4904 0.1381
vn -0.7539 0.3352 0.5650
vn -0.8466 -0.5196 0.1153
vn 0.8466 -0.5196 0.1153
vn -0.0000 0.9207 0.3904
vn 0.0093 -0.9895 -0.1446
vn 0.7539 0.3352 0.5650
vn -0.8605 0.4904 0.1381
vn 0.1346 -0.9895 -0.0535
vn 0.1346 0.4904 0.8610
vn -0.7703 0.3352 -0.5424
vn -0.3713 -0.5196 -0.7695
vn 0.1519 -0.5196 0.8408
vn -0.3713 0.9207 0.1206
vn 0.1404 -0.9895 -0.0358
vn -0.3044 0.3352 0.8916
vn -0.3972 0.4904 -0.7757
vn 0.0925 -0.9895 0.1115
vn -0.7773 0.4904 0.3941
vn 0.2778 0.3352 -0.9002
vn 0.6171 -0.5196 -0.5909
vn -0.7527 -0.5196 0.4043
vn -0.2295 0.9207 -0.3158
vn 0.0774 -0.9895 0.1224
vn -0.9420 0.3352 -0.0140
vn 0.6150 0.4904 -0.6175
vn 0.3972 -0.4745 0.7855
vn -0.1404 -0.4745 -0.8690
vn 0.3044 0.9474 -0.0989
vn 0.3713 0.5196 0.7695
vn 0.3713 -0.9207 -0.1206
vn -0.1519 0.5196 -0.8408
vn 0.3972 -0.4904 0.7757
vn 0.3044 -0.3352 -0.8916
vn -0.1404 0.9895 0.0358
vn -0.6243 -0.4745 0.6205
vn 0.7831 -0.4745 -0.4020
vn 0.1881 0.9474 0.2589
vn -0.6171 0.5196 0.5909
vn 0.2295 -0.9207 0.3158
vn 0.7527 0.5196 -0.4043
vn -0.6150 -0.4904 0.6175
vn 0.9420 -0.3352 0.0140
vn -0.0774 0.9895 -0.1224
vn -0.7831 -0.4745 -0.4020
vn 0.6243 -0.4745 0.6205
vn -0.1881 0.9474 0.2589
vn -0.7527 0.5196 -0.4043
vn -0.2295 -0.9207 0.3158
vn 0.6171 0.5196 0.5909
vn -0.7773 -0.4904 -0.3941
vn 0.2778 -0.3352 0.9002
vn 0.0925 0.9894 -0.1115
vn 0.1404 -0.4745 -0.8690
vn -0.3972 -0.4745 0.7855
vn -0.3044 0.9474 -0.0989
vn 0.1519 0.5196 -0.8408
vn -0.3713 -0.9207 -0.1206
vn -0.3713 0.5196 0.7695
vn 0.1346 -0.4904 -0.8610
vn -0.7703 -0.3352 0.5424
vn 0.1346 0.9895 0.0535
vn 0.8698 -0.4745 -0.1350
vn -0.8698 -0.4745 -0.1350
vn -0.0000 0.9474 -0.3201
vn 0.8466 0.5196 -0.1153
vn -0.0000 -0.9207 -0.3904
vn -0.8466 0.5196 -0.1153
vn 0.8605 -0.4904 -0.1381
vn -0.7539 -0.3352 -0.5650
vn -0.0093 0.9895 0.1446
vn 0.7831 -0.5718 -0.2446
vn -0.6244 0.3428 -0.7019
vn 0.1881 0.6553 0.7316
vn 0.7527 -0.1292 0.6456
vn 0.2295 -0.1292 -0.9647
vn -0.6171 0.7609 0.2005
vn 0.7773 -0.5718 -0.2624
vn -0.2778 0.6553 -0.7024
vn -0.0925 0.3428 0.9348
vn 0.4746 -0.5718 0.6692
vn 0.4746 0.3428 -0.8107
vn -0.6377 0.6553 0.4050
vn -0.3814 -0.1292 0.9153
vn 0.9884 -0.1292 -0.0799
vn -0.3814 0.7609 -0.5250
vn 0.4897 -0.5718 0.6582
vn 0.5822 0.6553 -0.4813
vn -0.9177 0.3428 0.2009
vn -0.4897 -0.5718 0.6582
vn 0.9177 0.3428 0.2009
vn -0.5822 0.6553 -0.4813
vn -0.9884 -0.1292 -0.0799
vn 0.3814 -0.1292 0.9153
vn 0.3814 0.7609 -0.5250
vn -0.4746 -0.5718 0.6692
vn 0.6377 0.6553 0.4050
vn -0.4746 0.3428 -0.8107
vn 0.8605 0.3428 0.3769
vn -0.0093 -0.5718 -0.8203
vn -0.7539 0.6553 0.0472
vn -0.0000 0.7609 0.6489
vn 0.8466 -0.1293 -0.5163
vn -0.8466 -0.1293 -0.5163
vn 0.8698 0.3330 0.3640
vn -0.0000 -0.1374 -0.9905
vn -0.8698 0.3330 0.3640
vn -0.7773 -0.5718 -0.2624
vn 0.0925 0.3428 0.9348
vn 0.2778 0.6553 -0.7024
vn -0.2295 -0.1292 -0.9647
vn -0.7527 -0.1292 0.6456
vn 0.6171 0.7609 0.2005
vn -0.7831 -0.5718 -0.2446
vn -0.1881 0.6553 0.7316
vn 0.6244 0.3428 -0.7019
vt 0.181819 0.000000
vt 0.227273 0.078731
vt 0.136365 0.078731
vt 0.272728 0.157461
vt 0.318182 0.078731
vt 0.363637 0.157461
vt 0.909091 0.000000
vt 0.954545 0.078731
vt 0.863636 0.078731
vt 0.727273 0.000000
vt 0.772727 0.078731
vt 0.681818 0.078731
vt 0.545455 0.000000
vt 0.590909 0.078731
vt 0.500000 0.078731
vt 0.318182 0.236191
vt 0.090910 0.157461
vt 0.181819 0.157461
vt 0.136365 0.236191
vt 0.818182 0.157461
vt 0.909091 0.157461
vt 0.863636 0.236191
vt 0.636364 0.157461
vt 0.727273 0.157461
vt 0.681818 0.236191
vt 0.454546 0.157461
vt 0.545455 0.157461
vt 0.500000 0.236191
vt 0.227273 0.236191
vt 0.045455 0.236191
vt 0.772727 0.236191
vt 0.590909 0.236191
vt 0.409092 0.236191
vt 0.181819 0.314921
vt 0.272728 0.314921
vt 0.227273 0.393651
vt 0.000000 0.314921
vt 0.090910 0.314921
vt 0.045455 0.393651
vt 0.727273 0.314921
vt 0.818182 0.314921
vt 0.772727 0.393651
vt 0.545455 0.314921
vt 0.636364 0.314921
vt 0.590909 0.393651
vt 0.363637 0.314921
vt 0.454546 0.314921
vt 0.409092 0.393651
vt 0.500000 0.393651
vt 0.454546 0.472382
vt 0.681818 0.393651
vt 0.636364 0.472382
vt 0.863636 0.393651
vt 0.818182 0.472382
vt 0.909091 0.314921
vt 0.136365 0.393651
vt 0.090910 0.472382
vt 0.318182 0.393651
vt 0.272728 0.472382
vt 0.954545 0.236191
vt 1.000000 0.157461
vt 0.409092 0.078731
vt 0.363637 0.000000
s 1
f 85/1/1 86/2/2 27/2/3 1/1/4
f 86/2/2 85/1/1 2/1/5 28/2/6
f 86/2/2 87/3/7 25/3/8 27/2/3
f 87/3/7 86/2/2 28/2/6 26/3/9
f 87/3/7 85/1/1 1/1/4 25/3/8
f 85/1/1 87/3/7 26/3/9 2/1/5
f 88/4/10 89/5/11 27/5/3 3/4/12
f 89/5/11 88/4/10 4/4/13 28/5/6
f 89/5/11 90/6/14 31/6/15 27/5/3
f 90/6/14 89/5/11 28/5/6 32/6/16
f 90/6/14 88/4/10 3/4/12 31/6/15
f 88/4/10 90/6/14 32/6/16 4/4/13
f 91/7/17 92/8/18 25/8/8 1/7/4
f 92/8/18 91/7/17 2/7/5 26/8/9
f 92/8/18 93/9/19 35/9/20 25/8/8
f 93/9/19 92/8/18 26/8/9 36/9/21
f 93/9/19 91/7/17 1/7/4 35/9/20
f 91/7/17 93/9/19 36/9/21 2/7/5
f 94/10/22 95/11/23 35/11/20 1/10/4
f 95/11/23 94/10/22 2/10/5 36/11/21
f 95/11/23 96/12/24 39/12/25 35/11/20
f 96/12/24 95/11/23 36/11/21 40/12/26
f 96/12/24 94/10/22 1/10/4 39/12/25
f 94/10/22 96/12/24 40/12/26 2/10/5
f 97/13/27 98/14/28 39/14/25 1/13/4
f 98/14/28 97/13/27 2/13/5 40/14/26
f 98/14/28 99/15/29 33/15/30 39/14/25
f 99/15/29 98/14/28 40/14/26 34/15/31
f 99/15/29 97/13/27 1/13/4 33/15/30
f 97/13/27 99/15/29 34/15/31 2/13/5
f 100/4/32 101/6/33 31/6/15 3/4/12
f 101/6/33 100/4/32 4/4/13 32/6/16
f 101/6/33 102/16/34 45/16/35 31/6/15
f 102/16/34 101/6/33 32/6/16 46/16/36
f 102/16/34 100/4/32 3/4/12 45/16/35
f 100/4/32 102/16/34 46/16/36 4/4/13
f 103/17/37 104/18/38 29/18/39 5/17/40
f 104/18/38 103/17/37 6/17/41 30/18/42
f 104/18/38 105/19/43 49/19/44 29/18/39
f 105/19/43 104/18/38 30/18/42 50/19/45
f 105/19/43 103/17/37 5/17/40 49/19/44
f 103/17/37 105/19/43 50/19/45 6/17/41
f 106/20/46 107/21/47 37/21/48 7/20/49
f 107/21/47 106/20/46 8/20/50 38/21/51
f 107/21/47 108/22/52 53/22/53 37/21/48
f 108/22/52 107/21/47 38/21/51 54/22/54
f 108/22/52 106/20/46 7/20/49 53/22/53
f 106/20/46 108/22/52 54/22/54 8/20/50
f 109/23/55 110/24/56 41/24/57 9/23/58
f 110/24/56 109/23/55 10/23/59 42/24/60
f 110/24/56 111/25/61 57/25/62 41/24/57
f 111/25/61 110/24/56 42/24/60 58/25/63
f 111/25/61 109/23/55 9/23/58 57/25/62
f 109/23/55 111/25/61 58/25/63 10/23/59
f 112/26/64 113/27/65 43/27/66 11/26/67
f 113/27/65 112/26/64 12/26/68 44/27/69
f 113/27/65 114/28/70 61/28/71 43/27/66
f 114/28/70 113/27/65 44/27/69 62/28/72
f 114/28/70 112/26/64 11/26/67 61/28/71
f 112/26/64 114/28/70 62/28/72 12/26/68
f 115/4/73 116/16/74 45/16/35 3/4/12
f 116/16/74 115/4/73 4/4/13 46/16/36
f 116/16/74 117/29/75 51/29/63 45/16/35
f 117/29/75 116/16/74 46/16/36 52/29/62
f 117/29/75 115/4/73 3/4/12 51/29/63
f 115/4/73 117/29/75 52/29/62 4/4/13
f 118/17/76 119/19/77 49/19/44 5/17/40
f 119/19/77 118/17/76 6/17/41 50/19/45
f 119/19/77 120/30/78 55/30/72 49/19/44
f 120/30/78 119/19/77 50/19/45 56/30/71
f 120/30/78 118/17/76 5/17/40 55/30/72
f 118/17/76 120/30/78 56/30/71 6/17/41
f 121/20/79 122/22/80 53/22/53 7/20/49
f 122/22/80 121/20/79 8/20/50 54/22/54
f 122/22/80 123/31/81 59/31/36 53/22/53
f 123/31/81 122/22/80 54/22/54 60/31/35
f 123/31/81 121/20/79 7/20/49 59/31/36
f 121/20/79 123/31/81 60/31/35 8/20/50
f 124/23/82 125/25/83 57/25/62 9/23/58
f 125/25/83 124/23/82 10/23/59 58/25/63
f 125/25/83 126/32/84 63/32/45 57/25/62
f 126/32/84 125/25/83 58/25/63 64/32/44
f 126/32/84 124/23/82 9/23/58 63/32/45
f 124/23/82 126/32/84 64/32/44 10/23/59
f 127/26/85 128/28/86 61/28/71 11/26/67
f 128/28/86 127/26/85 12/26/68 62/28/72
f 128/28/86 129/33/87 47/33/54 61/28/71
f 129/33/87 128/28/86 62/28/72 48/33/53
f 129/33/87 127/26/85 11/26/67 47/33/54
f 127/26/85 129/33/87 48/33/53 12/26/68
f 130/34/88 131/35/89 65/35/60 13/34/59
f 131/35/89 130/34/88 14/34/58 66/35/57
f 131/35/89 132/36/90 75/36/26 65/35/60
f 132/36/90 131/35/89 66/35/57 76/36/25
f 132/36/90 130/34/88 13/34/59 75/36/26
f 130/34/88 132/36/90 76/36/25 14/34/58
f 133/37/91 134/38/92 67/38/69 15/37/68
f 134/38/92 133/37/91 16/37/67 68/38/66
f 134/38/92 135/39/93 79/39/31 67/38/69
f 135/39/93 134/38/92 68/38/66 80/39/30
f 135/39/93 133/37/91 15/37/68 79/39/31
f 133/37/91 135/39/93 80/39/30 16/37/67
f 136/40/94 137/41/95 69/41/16 17/40/13
f 137/41/95 136/40/94 18/40/12 70/41/15
f 137/41/95 138/42/96 81/42/6 69/41/16
f 138/42/96 137/41/95 70/41/15 82/42/3
f 138/42/96 136/40/94 17/40/13 81/42/6
f 136/40/94 138/42/96 82/42/3 18/40/12
f 139/43/97 140/44/98 71/44/42 19/43/41
f 140/44/98 139/43/97 20/43/40 72/44/39
f 140/44/98 141/45/99 83/45/9 71/44/42
f 141/45/99 140/44/98 72/44/39 84/45/8
f 141/45/99 139/43/97 19/43/41 83/45/9
f 139/43/97 141/45/99 84/45/8 20/43/40
f 142/46/100 143/47/101 73/47/51 21/46/50
f 143/47/101 142/46/100 22/46/49 74/47/48
f 143/47/101 144/48/102 77/48/21 73/47/51
f 144/48/102 143/47/101 74/47/48 78/48/20
f 144/48/102 142/46/100 21/46/50 77/48/21
f 142/46/100 144/48/102 78/48/20 22/46/49
f 145/48/103 146/49/104 83/49/9 77/48/21
f 146/49/104 145/48/103 78/48/20 84/49/8
f 146/49/104 147/50/105 23/50/5 83/49/9
f 147/50/105 146/49/104 84/49/8 24/50/4
f 147/50/105 145/48/103 77/48/21 23/50/5
f 145/48/103 147/50/105 24/50/4 78/48/20
f 148/48/106 149/47/107 73/47/51 77/48/21
f 149/47/107 148/48/106 78/48/20 74/47/48
f 149/47/107 150/49/108 83/49/9 73/47/51
f 150/49/108 149/47/107 74/47/48 84/49/8
f 150/49/108 148/48/106 77/48/21 83/49/9
f 148/48/106 150/49/108 84/49/8 78/48/20
f 151/47/109 152/43/110 19/43/41 73/47/51
f 152/43/110 151/47/109 74/47/48 20/43/40
f 152/43/110 153/49/111 83/49/9 19/43/41
f 153/49/111 152/43/110 20/43/40 84/49/8
f 153/49/111 151/47/109 73/47/51 83/49/9
f 151/47/109 153/49/111 84/49/8 74/47/48
f 154/45/112 155/51/113 81/51/6 83/45/9
f 155/51/113 154/45/112 84/45/8 82/51/3
f 155/51/113 156/52/114 23/52/5 81/51/6
f 156/52/114 155/51/113 82/51/3 24/52/4
f 156/52/114 154/45/112 83/45/9 23/52/5
f 154/45/112 156/52/114 24/52/4 84/45/8
f 157/45/115 158/44/116 71/44/42 83/45/9
f 158/44/116 157/45/115 84/45/8 72/44/39
f 158/44/116 159/51/117 81/51/6 71/44/42
f 159/51/117 158/44/116 72/44/39 82/51/3
f 159/51/117 157/45/115 83/45/9 81/51/6
f 157/45/115 159/51/117 82/51/3 84/45/8
f 160/44/118 161/40/119 17/40/13 71/44/42
f 161/40/119 160/44/118 72/44/39 18/40/12
f 161/40/119 162/51/120 81/51/6 17/40/13
f 162/51/120 161/40/119 18/40/12 82/51/3
f 162/51/120 160/44/118 71/44/42 81/51/6
f 160/44/118 162/51/120 82/51/3 72/44/39
f 163/42/121 164/53/122 79/53/31 81/42/6
f 164/53/122 163/42/121 82/42/3 80/53/30
f 164/53/122 165/54/123 23/54/5 79/53/31
f 165/54/123 164/53/122 80/53/30 24/54/4
f 165/54/123 163/42/121 81/42/6 23/54/5
f 163/42/121 165/54/123 24/54/4 82/42/3
f 166/42/124 167/41/125 69/41/16 81/42/6
f 167/41/125 166/42/124 82/42/3 70/41/15
f 167/41/125 168/53/126 79/53/31 69/41/16
f 168/53/126 167/41/125 70/41/15 80/53/30
f 168/53/126 166/42/124 81/42/6 79/53/31
f 166/42/124 168/53/126 80/53/30 82/42/3
f 169/41/127 170/55/128 15/55/68 69/41/16
f 170/55/128 169/41/127 70/41/15 16/55/67
f 170/55/128 171/53/129 79/53/31 15/55/68
f 171/53/129 170/55/128 16/55/67 80/53/30
f 171/53/129 169/41/127 69/41/16 79/53/31
f 169/41/127 171/53/129 80/53/30 70/41/15
f 172/39/130 173/56/131 75/56/26 79/39/31
f 173/56/131 172/39/130 80/39/30 76/56/25
f 173/56/131 174/57/132 23/57/5 75/56/26
f 174/57/132 173/56/131 76/56/25 24/57/4
f 174/57/132 172/39/130 79/39/31 23/57/5
f 172/39/130 174/57/132 24/57/4 80/39/30
f 175/39/133 176/38/134 67/38/69 79/39/31
f 176/38/134 175/39/133 80/39/30 68/38/66
f 176/38/134 177/56/135 75/56/26 67/38/69
f 177/56/135 176/38/134 68/38/66 76/56/25
f 177/56/135 175/39/133 79/39/31 75/56/26
f 175/39/133 177/56/135 76/56/25 80/39/30
f 178/38/136 179/34/137 13/34/59 67/38/69
f 179/34/137 178/38/136 68/38/66 14/34/58
f 179/34/137 180/56/138 75/56/26 13/34/59
f 180/56/138 179/34/137 14/34/58 76/56/25
f 180/56/138 178/38/136 67/38/69 75/56/26
f 178/38/136 180/56/138 76/56/25 68/38/66
f 181/36/139 182/58/140 77/58/21 75/36/26
f 182/58/140 181/36/139 76/36/25 78/58/20
f 182/58/140 183/59/141 23/59/5 77/58/21
f 183/59/141 182/58/140 78/58/20 24/59/4
f 183/59/141 181/36/139 75/36/26 23/59/5
f 181/36/139 183/59/141 24/59/4 76/36/25
f 184/36/142 185/35/143 65/35/60 75/36/26
f 185/35/143 184/36/142 76/36/25 66/35/57
f 185/35/143 186/58/144 77/58/21 65/35/60
f 186/58/144 185/35/143 66/35/57 78/58/20
f 186/58/144 184/36/142 75/36/26 77/58/21
f 184/36/142 186/58/144 78/58/20 76/36/25
f 187/35/145 188/46/146 21/46/50 65/35/60
f 188/46/146 187/35/145 66/35/57 22/46/49
f 188/46/146 189/58/147 77/58/21 21/46/50
f 189/58/147 188/46/146 22/46/49 78/58/20
f 189/58/147 187/35/145 65/35/60 77/58/21
f 187/35/145 189/58/147 78/58/20 66/35/57
f 190/33/148 191/47/149 73/47/51 47/33/54
f 191/47/149 190/33/148 48/33/53 74/47/48
f 191/47/149 192/46/150 21/46/50 73/47/51
f 192/46/150 191/47/149 74/47/48 22/46/49
f 192/46/150 190/33/148 47/33/54 21/46/50
f 190/33/148 192/46/150 22/46/49 48/33/53
f 193/33/151 194/28/152 61/28/71 47/33/54
f 194/28/152 193/33/151 48/33/53 62/28/72
f 194/28/152 195/47/153 73/47/51 61/28/71
f 195/47/153 194/28/152 62/28/72 74/47/48
f 195/47/153 193/33/151 47/33/54 73/47/51
f 193/33/151 195/47/153 74/47/48 48/33/53
f 196/28/154 197/43/155 19/43/41 61/28/71
f 197/43/155 196/28/154 62/28/72 20/43/40
f 197/43/155 198/47/156 73/47/51 19/43/41
f 198/47/156 197/43/155 20/43/40 74/47/48
f 198/47/156 196/28/154 61/28/71 73/47/51
f 196/28/154 198/47/156 74/47/48 62/28/72
f 199/32/157 200/44/158 71/44/42 63/32/45
f 200/44/158 199/32/157 64/32/44 72/44/39
f 200/44/158 201/43/159 19/43/41 71/44/42
f 201/43/159 200/44/158 72/44/39 20/43/40
f 201/43/159 199/32/157 63/32/45 19/43/41
f 199/32/157 201/43/159 20/43/40 64/32/44
f 202/32/160 203/25/161 57/25/62 63/32/45
f 203/25/161 202/32/160 64/32/44 58/25/63
f 203/25/161 204/44/162 71/44/42 57/25/62
f 204/44/162 203/25/161 58/25/63 72/44/39
f 204/44/162 202/32/160 63/32/45 71/44/42
f 202/32/160 204/44/162 72/44/39 64/32/44
f 205/25/163 206/40/164 17/40/13 57/25/62
f 206/40/164 205/25/163 58/25/63 18/40/12
f 206/40/164 207/44/165 71/44/42 17/40/13
f 207/44/165 206/40/164 18/40/12 72/44/39
f 207/44/165 205/25/163 57/25/62 71/44/42
f 205/25/163 207/44/165 72/44/39 58/25/63
f 208/31/166 209/41/167 69/41/16 59/31/36
f 209/41/167 208/31/166 60/31/35 70/41/15
f 209/41/167 210/40/168 17/40/13 69/41/16
f 210/40/168 209/41/167 70/41/15 18/40/12
f 210/40/168 208/31/166 59/31/36 17/40/13
f 208/31/166 210/40/168 18/40/12 60/31/35
f 211/31/169 212/22/170 53/22/53 59/31/36
f 212/22/170 211/31/169 60/31/35 54/22/54
f 212/22/170 213/41/171 69/41/16 53/22/53
f 213/41/171 212/22/170 54/22/54 70/41/15
f 213/41/171 211/31/169 59/31/36 69/41/16
f 211/31/169 213/41/171 70/41/15 60/31/35
f 214/22/172 215/55/173 15/55/68 53/22/53
f 215/55/173 214/22/172 54/22/54 16/55/67
f 215/55/173 216/41/174 69/41/16 15/55/68
f 216/41/174 215/55/173 16/55/67 70/41/15
f 216/41/174 214/22/172 53/22/53 69/41/16
f 214/22/172 216/41/174 70/41/15 54/22/54
f 217/30/175 218/38/176 67/38/69 55/30/72
f 218/38/176 217/30/175 56/30/71 68/38/66
f 218/38/176 219/37/177 15/37/68 67/38/69
f 219/37/177 218/38/176 68/38/66 16/37/67
f 219/37/177 217/30/175 55/30/72 15/37/68
f 217/30/175 219/37/177 16/37/67 56/30/71
f 220/30/178 221/19/179 49/19/44 55/30/72
f 221/19/179 220/30/178 56/30/71 50/19/45
f 221/19/179 222/38/180 67/38/69 49/19/44
f 222/38/180 221/19/179 50/19/45 68/38/66
f 222/38/180 220/30/178 55/30/72 67/38/69
f 220/30/178 222/38/180 68/38/66 56/30/71
f 223/19/181 224/34/182 13/34/59 49/19/44
f 224/34/182 223/19/181 50/19/45 14/34/58
f 224/34/182 225/38/183 67/38/69 13/34/59
f 225/38/183 224/34/182 14/34/58 68/38/66
f 225/38/183 223/19/181 49/19/44 67/38/69
f 223/19/181 225/38/183 68/38/66 50/19/45
f 226/29/184 227/35/185 65/35/60 51/29/63
f 227/35/185 226/29/184 52/29/62 66/35/57
f 227/35/185 228/34/186 13/34/59 65/35/60
f 228/34/186 227/35/185 66/35/57 14/34/58
f 228/34/186 226/29/184 51/29/63 13/34/59
f 226/29/184 228/34/186 14/34/58 52/29/62
f 229/29/187 230/16/188 45/16/35 51/29/63
f 230/16/188 229/29/187 52/29/62 46/16/36
f 230/16/188 231/35/189 65/35/60 45/16/35
f 231/35/189 230/16/188 46/16/36 66/35/57
f 231/35/189 229/29/187 51/29/63 65/35/60
f 229/29/187 231/35/189 66/35/57 52/29/62
f 232/16/190 233/46/191 21/46/50 45/16/35
f 233/46/191 232/16/190 46/16/36 22/46/49
f 233/46/191 234/35/192 65/35/60 21/46/50
f 234/35/192 233/46/191 22/46/49 66/35/57
f 234/35/192 232/16/190 45/16/35 65/35/60
f 232/16/190 234/35/192 66/35/57 46/16/36
f 235/28/193 236/32/194 63/32/45 61/28/71
f 236/32/194 235/28/193 62/28/72 64/32/44
f 236/32/194 237/43/195 19/43/41 63/32/45
f 237/43/195 236/32/194 64/32/44 20/43/40
f 237/43/195 235/28/193 61/28/71 19/43/41
f 235/28/193 237/43/195 20/43/40 62/28/72
f 238/28/196 239/27/197 43/27/66 61/28/71
f 239/27/197 238/28/196 62/28/72 44/27/69
f 239/27/197 240/32/198 63/32/45 43/27/66
f 240/32/198 239/27/197 44/27/69 64/32/44
f 240/32/198 238/28/196 61/28/71 63/32/45
f 238/28/196 240/32/198 64/32/44 62/28/72
f 241/27/199 242/23/200 9/23/58 43/27/66
f 242/23/200 241/27/199 44/27/69 10/23/59
f 242/23/200 243/32/201 63/32/45 9/23/58
f 243/32/201 242/23/200 10/23/59 64/32/44
f 243/32/201 241/27/199 43/27/66 63/32/45
f 241/27/199 243/32/201 64/32/44 44/27/69
f 244/25/202 245/31/203 59/31/36 57/25/62
f 245/31/203 244/25/202 58/25/63 60/31/35
f 245/31/203 246/40/204 17/40/13 59/31/36
f 246/40/204 245/31/203 60/31/35 18/40/12
f 246/40/204 244/25/202 57/25/62 17/40/13
f 244/25/202 246/40/204 18/40/12 58/25/63
f 247/25/205 248/24/206 41/24/57 57/25/62
f 248/24/206 247/25/205 58/25/63 42/24/60
f 248/24/206 249/31/207 59/31/36 41/24/57
f 249/31/207 248/24/206 42/24/60 60/31/35
f 249/31/207 247/25/205 57/25/62 59/31/36
f 247/25/205 249/31/207 60/31/35 58/25/63
f 250/24/208 251/20/209 7/20/49 41/24/57
f 251/20/209 250/24/208 42/24/60 8/20/50
f 251/20/209 252/31/210 59/31/36 7/20/49
f 252/31/210 251/20/209 8/20/50 60/31/35
f 252/31/210 250/24/208 41/24/57 59/31/36
f 250/24/208 252/31/210 60/31/35 42/24/60
f 253/22/211 254/60/212 55/60/72 53/22/53
f 254/60/212 253/22/211 54/22/54 56/60/71
f 254/60/212 255/55/213 15/55/68 55/60/72
f 255/55/213 254/60/212 56/60/71 16/55/67
f 255/55/213 253/22/211 53/22/53 15/55/68
f 253/22/211 255/55/213 16/55/67 54/22/54
f 256/22/214 257/21/215 37/21/48 53/22/53
f 257/21/215 256/22/214 54/22/54 38/21/51
f 257/21/215 258/60/216 55/60/72 37/21/48
f 258/60/216 257/21/215 38/21/51 56/60/71
f 258/60/216 256/22/214 53/22/53 55/60/72
f 256/22/214 258/60/216 56/60/71 54/22/54
f 259/21/217 260/61/218 5/61/40 37/21/48
f 260/61/218 259/21/217 38/21/51 6/61/41
f 260/61/218 261/60/219 55/60/72 5/61/40
f 261/60/219 260/61/218 6/61/41 56/60/71
f 261/60/219 259/21/217 37/21/48 55/60/72
f 259/21/217 261/60/219 56/60/71 38/21/51
f 262/19/220 263/29/221 51/29/63 49/19/44
f 263/29/221 262/19/220 50/19/45 52/29/62
f 263/29/221 264/34/222 13/34/59 51/29/63
f 264/34/222 263/29/221 52/29/62 14/34/58
f 264/34/222 262/19/220 49/19/44 13/34/59
f 262/19/220 264/34/222 14/34/58 50/19/45
f 265/19/223 266/18/224 29/18/39 49/19/44
f 266/18/224 265/19/223 50/19/45 30/18/42
f 266/18/224 267/29/225 51/29/63 29/18/39
f 267/29/225 266/18/224 30/18/42 52/29/62
f 267/29/225 265/19/223 49/19/44 51/29/63
f 265/19/223 267/29/225 52/29/62 50/19/45
f 268/18/226 269/4/227 3/4/12 29/18/39
f 269/4/227 268/18/226 30/18/42 4/4/13
f 269/4/227 270/29/228 51/29/63 3/4/12
f 270/29/228 269/4/227 4/4/13 52/29/62
f 270/29/228 268/18/226 29/18/39 51/29/63
f 268/18/226 270/29/228 52/29/62 30/18/42
f 271/16/229 272/33/230 47/33/54 45/16/35
f 272/33/230 271/16/229 46/16/36 48/33/53
f 272/33/230 273/46/231 21/46/50 47/33/54
f 273/46/231 272/33/230 48/33/53 22/46/49
f 273/46/231 271/16/229 45/16/35 21/46/50
f 271/16/229 273/46/231 22/46/49 46/16/36
f 274/16/232 275/6/233 31/6/15 45/16/35
f 275/6/233 274/16/232 46/16/36 32/6/16
f 275/6/233 276/33/234 47/33/54 31/6/15
f 276/33/234 275/6/233 32/6/16 48/33/53
f 276/33/234 274/16/232 45/16/35 47/33/54
f 274/16/232 276/33/234 48/33/53 46/16/36
f 277/6/235 278/26/236 11/26/67 31/6/15
f 278/26/236 277/6/235 32/6/16 12/26/68
f 278/26/236 279/33/237 47/33/54 11/26/67
f 279/33/237 278/26/236 12/26/68 48/33/53
f 279/33/237 277/6/235 31/6/15 47/33/54
f 277/6/235 279/33/237 48/33/53 32/6/16
f 280/15/238 281/27/239 43/27/66 33/15/30
f 281/27/239 280/15/238 34/15/31 44/27/69
f 281/27/239 282/26/240 11/26/67 43/27/66
f 282/26/240 281/27/239 44/27/69 12/26/68
f 282/26/240 280/15/238 33/15/30 11/26/67
f 280/15/238 282/26/240 12/26/68 34/15/31
f 283/15/241 284/14/242 39/14/25 33/15/30
f 284/14/242 283/15/241 34/15/31 40/14/26
f 284/14/242 285/27/243 43/27/66 39/14/25
f 285/27/243 284/14/242 40/14/26 44/27/69
f 285/27/243 283/15/241 33/15/30 43/27/66
f 283/15/241 285/27/243 44/27/69 34/15/31
f 286/14/244 287/23/245 9/23/58 39/14/25
f 287/23/245 286/14/244 40/14/26 10/23/59
f 287/23/245 288/27/246 43/27/66 9/23/58
f 288/27/246 287/23/245 10/23/59 44/27/69
f 288/27/246 286/14/244 39/14/25 43/27/66
f 286/14/244 288/27/246 44/27/69 40/14/26
f 289/12/247 290/24/248 41/24/57 39/12/25
f 290/24/248 289/12/247 40/12/26 42/24/60
f 290/24/248 291/23/249 9/23/58 41/24/57
f 291/23/249 290/24/248 42/24/60 10/23/59
f 291/23/249 289/12/247 39/12/25 9/23/58
f 289/12/247 291/23/249 10/23/59 40/12/26
f 292/12/250 293/11/251 35/11/20 39/12/25
f 293/11/251 292/12/250 40/12/26 36/11/21
f 293/11/251 294/24/252 41/24/57 35/11/20
f 294/24/252 293/11/251 36/11/21 42/24/60
f 294/24/252 292/12/250 39/12/25 41/24/57
f 292/12/250 294/24/252 42/24/60 40/12/26
f 295/11/253 296/20/254 7/20/49 35/11/20
f 296/20/254 295/11/253 36/11/21 8/20/50
f 296/20/254 297/24/255 41/24/57 7/20/49
f 297/24/255 296/20/254 8/20/50 42/24/60
f 297/24/255 295/11/253 35/11/20 41/24/57
f 295/11/253 297/24/255 42/24/60 36/11/21
f 298/9/256 299/21/257 37/21/48 35/9/20
f 299/21/257 298/9/256 36/9/21 38/21/51
f 299/21/257 300/20/258 7/20/49 37/21/48
f 300/20/258 299/21/257 38/21/51 8/20/50
f 300/20/258 298/9/256 35/9/20 7/20/49
f 298/9/256 300/20/258 8/20/50 36/9/21
f 301/9/259 302/8/260 25/8/8 35/9/20
f 302/8/260 301/9/259 36/9/21 26/8/9
f 302/8/260 303/21/261 37/21/48 25/8/8
f 303/21/261 302/8/260 26/8/9 38/21/51
f 303/21/261 301/9/259 35/9/20 37/21/48
f 301/9/259 303/21/261 38/21/51 36/9/21
f 304/8/262 305/61/263 5/61/40 25/8/8
f 305/61/263 304/8/262 26/8/9 6/61/41
f 305/61/263 306/21/264 37/21/48 5/61/40
f 306/21/264 305/61/263 6/61/41 38/21/51
f 306/21/264 304/8/262 25/8/8 37/21/48
f 304/8/262 306/21/264 38/21/51 26/8/9
f 307/6/265 308/62/266 33/62/30 31/6/15
f 308/62/266 307/6/265 32/6/16 34/62/31
f 308/62/266 309/26/267 11/26/67 33/62/30
f 309/26/267 308/62/266 34/62/31 12/26/68
f 309/26/267 307/6/265 31/6/15 11/26/67
f 307/6/265 309/26/267 12/26/68 32/6/16
f 310/6/268 311/5/269 27/5/3 31/6/15
f 311/5/269 310/6/268 32/6/16 28/5/6
f 311/5/269 312/62/270 33/62/30 27/5/3
f 312/62/270 311/5/269 28/5/6 34/62/31
f 312/62/270 310/6/268 31/6/15 33/62/30
f 310/6/268 312/62/270 34/62/31 32/6/16
f 313/5/271 314/63/272 1/63/4 27/5/3
f 314/63/272 313/5/271 28/5/6 2/63/5
f 314/63/272 315/62/273 33/62/30 1/63/4
f 315/62/273 314/63/272 2/63/5 34/62/31
f 315/62/273 313/5/271 27/5/3 33/62/30
f 313/5/271 315/62/273 34/62/31 28/5/6
f 316/3/274 317/18/275 29/18/39 25/3/8
f 317/18/275 316/3/274 26/3/9 30/18/42
f 317/18/275 318/17/276 5/17/40 29/18/39
f 318/17/276 317/18/275 30/18/42 6/17/41
f 318/17/276 316/3/274 25/3/8 5/17/40
f 316/3/274 318/17/276 6/17/41 26/3/9
f 319/3/277 320/2/278 27/2/3 25/3/8
f 320/2/278 319/3/277 26/3/9 28/2/6
f 320/2/278 321/18/279 29/18/39 27/2/3
f 321/18/279 320/2/278 28/2/6 30/18/42
f 321/18/279 319/3/277 25/3/8 29/18/39
f 319/3/277 321/18/279 30/18/42 26/3/9
f 322/2/280 323/4/281 3/4/12 27/2/3
f 323/4/281 322/2/280 28/2/6 4/4/13
f 323/4/281 324/18/282 29/18/39 3/4/12
f 324/18/282 323/4/281 4/4/13 30/18/42
f 324/18/282 322/2/280 27/2/3 29/18/39
f 322/2/280 324/18/282 30/18/42 28/2/6
