# Blender 4.5.1 LTS
# www.blender.org
mtllib ui_yaw.mtl
o Sphere
v 0.000000 0.173648 -0.984808
v 0.224144 0.500000 -0.836516
v 0.254887 0.173648 -0.951251
v 0.433013 0.500000 -0.750000
v 0.492404 0.173648 -0.852868
v 0.612372 0.500000 -0.612372
v 0.696364 0.173648 -0.696364
v 0.750000 0.500000 -0.433013
v 0.852868 0.173648 -0.492404
v 0.836516 0.500000 -0.224144
v 0.951251 0.173648 -0.254887
v 0.866025 0.500000 0.000000
v 0.984808 0.173648 0.000000
v 0.836516 0.500000 0.224144
v 0.951251 0.173648 0.254887
v 0.750000 0.500000 0.433013
v 0.852868 0.173648 0.492404
v 0.612372 0.500000 0.612372
v 0.696364 0.173648 0.696364
v 0.433013 0.500000 0.750000
v 0.492404 0.173648 0.852868
v 0.224144 0.500000 0.836516
v 0.254887 0.173648 0.951251
v -0.000000 0.500000 0.866025
v 0.000000 0.173648 0.984808
v -0.224144 0.500000 0.836516
v -0.254887 0.173648 0.951251
v -0.433013 0.500000 0.750000
v -0.492404 0.173648 0.852868
v -0.612372 0.500000 0.612372
v -0.696364 0.173648 0.696364
v -0.750000 0.500000 0.433013
v -0.852868 0.173648 0.492404
v -0.836516 0.500000 0.224144
v -0.951251 0.173648 0.254887
v -0.866025 0.500000 -0.000000
v -0.984807 0.173648 -0.000000
v -0.836516 0.500000 -0.224144
v -0.951251 0.173648 -0.254887
v -0.750000 0.500000 -0.433013
v -0.852868 0.173648 -0.492404
v -0.612372 0.500000 -0.612372
v -0.696364 0.173648 -0.696364
v -0.433012 0.500000 -0.750000
v -0.492404 0.173648 -0.852868
v -0.224144 0.500000 -0.836516
v -0.254887 0.173648 -0.951251
v 0.000000 0.500000 -0.866025
vn 0.1228 0.3394 -0.9326
vn 0.3600 0.3394 -0.8690
vn 0.5726 0.3394 -0.7463
vn 0.7463 0.3394 -0.5726
vn 0.8690 0.3394 -0.3600
vn 0.9326 0.3394 -0.1228
vn 0.9326 0.3394 0.1228
vn 0.8690 0.3394 0.3600
vn 0.7463 0.3394 0.5726
vn 0.5726 0.3394 0.7463
vn 0.3600 0.3394 0.8690
vn 0.1228 0.3394 0.9326
vn -0.1228 0.3394 0.9326
vn -0.3600 0.3394 0.8690
vn -0.5726 0.3394 0.7463
vn -0.7463 0.3394 0.5726
vn -0.8690 0.3394 0.3600
vn -0.9326 0.3394 0.1228
vn -0.9326 0.3394 -0.1228
vn -0.8690 0.3394 -0.3600
vn -0.7463 0.3394 -0.5726
vn -0.5726 0.3394 -0.7463
vn -0.3600 0.3394 -0.8690
vn -0.1228 0.3394 -0.9326
vt 0.750000 0.555556
vt 0.750000 0.666667
vt 0.708333 0.666667
vt 0.708333 0.555556
vt 0.666667 0.666667
vt 0.666667 0.555556
vt 0.625000 0.666667
vt 0.625000 0.555556
vt 0.583333 0.666667
vt 0.583333 0.555556
vt 0.541667 0.666667
vt 0.541667 0.555556
vt 0.500000 0.666667
vt 0.500000 0.555556
vt 0.458333 0.666667
vt 0.458333 0.555556
vt 0.416667 0.666667
vt 0.416667 0.555556
vt 0.375000 0.666667
vt 0.375000 0.555556
vt 0.333333 0.666667
vt 0.333333 0.555556
vt 0.291667 0.666667
vt 0.291667 0.555556
vt 0.250000 0.666667
vt 0.250000 0.555556
vt 0.208333 0.666667
vt 0.208333 0.555556
vt 0.166667 0.666667
vt 0.166667 0.555556
vt 0.125000 0.666667
vt 0.125000 0.555556
vt 0.083333 0.666667
vt 0.083333 0.555556
vt 0.041667 0.666667
vt 0.041667 0.555556
vt 0.000000 0.666667
vt 0.000000 0.555556
vt 1.000000 0.555556
vt 1.000000 0.666667
vt 0.958333 0.666667
vt 0.958333 0.555556
vt 0.916667 0.666667
vt 0.916667 0.555556
vt 0.875000 0.666667
vt 0.875000 0.555556
vt 0.833333 0.666667
vt 0.833333 0.555556
vt 0.791667 0.666667
vt 0.791667 0.555556
s 0
f 1/1/1 48/2/1 2/3/1 3/4/1
f 3/4/2 2/3/2 4/5/2 5/6/2
f 5/6/3 4/5/3 6/7/3 7/8/3
f 7/8/4 6/7/4 8/9/4 9/10/4
f 9/10/5 8/9/5 10/11/5 11/12/5
f 11/12/6 10/11/6 12/13/6 13/14/6
f 13/14/7 12/13/7 14/15/7 15/16/7
f 15/16/8 14/15/8 16/17/8 17/18/8
f 17/18/9 16/17/9 18/19/9 19/20/9
f 19/20/10 18/19/10 20/21/10 21/22/10
f 21/22/11 20/21/11 22/23/11 23/24/11
f 23/24/12 22/23/12 24/25/12 25/26/12
f 25/26/13 24/25/13 26/27/13 27/28/13
f 27/28/14 26/27/14 28/29/14 29/30/14
f 29/30/15 28/29/15 30/31/15 31/32/15
f 31/32/16 30/31/16 32/33/16 33/34/16
f 33/34/17 32/33/17 34/35/17 35/36/17
f 35/36/18 34/35/18 36/37/18 37/38/18
f 37/39/19 36/40/19 38/41/19 39/42/19
f 39/42/20 38/41/20 40/43/20 41/44/20
f 41/44/21 40/43/21 42/45/21 43/46/21
f 43/46/22 42/45/22 44/47/22 45/48/22
f 45/48/23 44/47/23 46/49/23 47/50/23
f 47/50/24 46/49/24 48/2/24 1/1/24
